# xmcd
#
# Track frame offsets:
# 150
# 25404
# 52161
# 74781
# 100308
# 119518
# 137935
# 161980
# 184865
# 209984
# 226063
# 250576
# 276069
# 299441
#
# Disc length: 4329 seconds
#
#
# Revision: 0
# Processed by: cddbd v1.5.2PL0 Copyright (c) Steve Scherf et al.
# Submitted via: FreeRIP 2.945 
#
DISCID=e910e70e
DTITLE=Diversos Repentistas - II Festival Nacional de Repentistas-Caruaru-PE
DYEAR=2001
DGENRE=Repentista
TTITLE0=Um Patrão namorador-Valdir Teles e Sebastião da Silva
TTITLE1=Comparando aos ladrões...-Valdir Teles e Sebastião da Silva
TTITLE2=Animais estranhos-Louro Branco e Edvaldo Zuzu
TTITLE3=Quem fez o que fiz não pensa...-Louro Branco e Edvaldo Zuzu
TTITLE4=As cidades da fé-João Lourenço e Raimundo Caetano
TTITLE5=No bem da mulher amada...-João Lourenço e Raimundo Caetano
TTITLE6=Segure o remo da canoa meu amor-João Lourenço e Raimundo Caetano
TTITLE7=Em janeiro o trovão rege o coral...-Moacir Laurentino e Geraldo Amâncio
TTITLE8=Não pense que eu vou querer...Moacir Laurentino e Geraldo Amâncio
TTITLE9=Assim está respondido-Moacir Laurentino e Geraldo Amâncio
TTITLE10=O galo acordava a gente...-Fenelon Dantas e Gilberto Alves
TTITLE11=Falta um boi vaqueiro...-Fenelon Dantas e Gilberto Alves
TTITLE12=Cantador no final da caminhada...-Zé Cardoso e Ismael Pereira
TTITLE13=A saudade é companheira...-Zé Cardoso e Ismael Pereira
EXTD=
EXTT0=
EXTT1=
EXTT2=
EXTT3=
EXTT4=
EXTT5=
EXTT6=
EXTT7=
EXTT8=
EXTT9=
EXTT10=
EXTT11=
EXTT12=
EXTT13=
PLAYORDER=
